0
SECTION
2
HEADER
9
$INSUNITS
70
4
9
$ACADVER
1
AC1014
9
$HANDSEED
5
FFFF
0
ENDSEC
0
SECTION
2
TABLES
0
TABLE
2
VPORT
5
8
100
AcDbSymbolTable
0
ENDTAB
0
TABLE
2
LTYPE
5
5
100
AcDbSymbolTable
0
LTYPE
5
14
100
AcDbSymbolTableRecord
100
AcDbLinetypeTableRecord
2
BYBLOCK
70
0
0
LTYPE
5
15
100
AcDbSymbolTableRecord
100
AcDbLinetypeTableRecord
2
BYLAYER
70
0
0
ENDTAB
0
TABLE
2
LAYER
5
2
100
AcDbSymbolTable
70
2
0
LAYER
5
50
100
AcDbSymbolTableRecord
100
AcDbLayerTableRecord
2
0
70
0
6
CONTINUOUS
0
ENDTAB
0
TABLE
2
STYLE
5
3
100
AcDbSymbolTable
70
1
0
STYLE
5
11
100
AcDbSymbolTableRecord
100
AcDbTextStyleTableRecord
2
STANDARD
70
0
0
ENDTAB
0
TABLE
2
VIEW
5
6
100
AcDbSymbolTable
70
0
0
ENDTAB
0
TABLE
2
UCS
5
7
100
AcDbSymbolTable
70
0
0
ENDTAB
0
TABLE
2
APPID
5
9
100
AcDbSymbolTable
70
2
0
APPID
5
12
100
AcDbSymbolTableRecord
100
AcDbRegAppTableRecord
2
ACAD
70
0
0
ENDTAB
0
TABLE
2
DIMSTYLE
5
A
100
AcDbSymbolTable
70
1
0
ENDTAB
0
TABLE
2
BLOCK_RECORD
5
1
100
AcDbSymbolTable
70
1
0
BLOCK_RECORD
5
1F
100
AcDbSymbolTableRecord
100
AcDbBlockTableRecord
2
*MODEL_SPACE
0
BLOCK_RECORD
5
1B
100
AcDbSymbolTableRecord
100
AcDbBlockTableRecord
2
*PAPER_SPACE
0
ENDTAB
0
ENDSEC
0
SECTION
2
BLOCKS
0
BLOCK
5
20
100
AcDbEntity
100
AcDbBlockBegin
2
*MODEL_SPACE
0
ENDBLK
5
21
100
AcDbEntity
100
AcDbBlockEnd
0
BLOCK
5
1C
100
AcDbEntity
100
AcDbBlockBegin
2
*PAPER_SPACE
0
ENDBLK
5
1D
100
AcDbEntity
100
AcDbBlockEnd
0
ENDSEC
0
SECTION
2
ENTITIES
0
LWPOLYLINE
5
100
100
AcDbEntity
8
0
100
AcDbPolyline
90
4
70
1
43
0.0
10
55
20
435
10
70
20
435
10
70
20
410
10
55
20
410
0
LWPOLYLINE
5
101
100
AcDbEntity
8
0
100
AcDbPolyline
90
4
70
1
43
0.0
10
15
20
435
10
25
20
435
10
25
20
385
10
15
20
385
0
LWPOLYLINE
5
102
100
AcDbEntity
8
0
100
AcDbPolyline
90
4
70
1
43
0.0
10
35
20
435
10
45
20
435
10
45
20
385
10
35
20
385
0
LWPOLYLINE
5
103
100
AcDbEntity
8
0
100
AcDbPolyline
90
4
70
1
43
0.0
10
75
20
435
10
108
20
435
10
108
20
410
10
75
20
410
0
LWPOLYLINE
5
104
100
AcDbEntity
8
0
100
AcDbPolyline
90
4
70
1
43
0.0
10
0
20
450
10
124
20
450
10
124
20
356
10
0
20
356
0
CIRCLE
5
105
100
AcDbEntity
8
0
100
AcDbCircle
10
59.00000087916851
20
407.50000612437725
30
0
40
0.49999999999999772
210
0
220
0
230
1
0
CIRCLE
5
106
100
AcDbEntity
8
0
100
AcDbCircle
10
61.250000908970833
20
407.50000612437725
30
0
40
0.50000000000002687
210
0
220
0
230
1
0
CIRCLE
5
107
100
AcDbEntity
8
0
100
AcDbCircle
10
63.750000953674316
20
407.50000612437725
30
0
40
0.50000000000001321
210
0
220
0
230
1
0
CIRCLE
5
108
100
AcDbEntity
8
0
100
AcDbCircle
10
66.000000983476639
20
407.50000612437725
30
0
40
0.49999999999999822
210
0
220
0
230
1
0
CIRCLE
5
109
100
AcDbEntity
8
0
100
AcDbCircle
10
91.5
20
432.45857389349692
30
0
40
0.4999999999999899
210
0
220
0
230
1
0
CIRCLE
5
110
100
AcDbEntity
8
0
100
AcDbCircle
10
94.063918092263208
20
432.45857389349692
30
0
40
0.49999999999998934
210
0
220
0
230
1
0
CIRCLE
5
111
100
AcDbEntity
8
0
100
AcDbCircle
10
88.952753914191319
20
432.49176327127662
30
0
40
0.50000000000003286
210
0
220
0
230
1
0
CIRCLE
5
112
100
AcDbEntity
8
0
100
AcDbCircle
10
106.44006226829761
20
416.03294438498642
30
0
40
0.50000000000000577
210
0
220
0
230
1
0
CIRCLE
5
113
100
AcDbEntity
8
0
100
AcDbCircle
10
19.000000908970836
20
383.00000612437725
30
0
40
0.50000000000002687
210
0
220
0
230
1
0
CIRCLE
5
114
100
AcDbEntity
8
0
100
AcDbCircle
10
16.50000087916851
20
383.00000612437725
30
0
40
0.49999999999999772
210
0
220
0
230
1
0
CIRCLE
5
115
100
AcDbEntity
8
0
100
AcDbCircle
10
21.250000953674313
20
383.00000612437725
30
0
40
0.50000000000001321
210
0
220
0
230
1
0
CIRCLE
5
116
100
AcDbEntity
8
0
100
AcDbCircle
10
41.250000953674316
20
383.00000612437725
30
0
40
0.50000000000001321
210
0
220
0
230
1
0
CIRCLE
5
117
100
AcDbEntity
8
0
100
AcDbCircle
10
39.000000908970833
20
383.00000612437725
30
0
40
0.50000000000002687
210
0
220
0
230
1
0
CIRCLE
5
118
100
AcDbEntity
8
0
100
AcDbCircle
10
36.50000087916851
20
383.00000612437725
30
0
40
0.49999999999999772
210
0
220
0
230
1
0
CIRCLE
5
119
100
AcDbEntity
8
0
100
AcDbCircle
10
61.250000908970833
20
407.50000612437725
30
0
40
0.50000000000002687
210
0
220
0
230
1
0
CIRCLE
5
120
100
AcDbEntity
8
0
100
AcDbCircle
10
59.00000087916851
20
407.50000612437725
30
0
40
0.49999999999999772
210
0
220
0
230
1
0
CIRCLE
5
121
100
AcDbEntity
8
0
100
AcDbCircle
10
61.750000953674309
20
391.50000612437725
30
0
40
0.50000000000001321
210
0
220
0
230
1
0
CIRCLE
5
122
100
AcDbEntity
8
0
100
AcDbCircle
10
63.750000953674316
20
391.50000612437725
30
0
40
0.50000000000001321
210
0
220
0
230
1
0
CIRCLE
5
123
100
AcDbEntity
8
0
100
AcDbCircle
10
85.000001266598701
20
392.00000596046448
30
0
40
0.50000000000000244
210
0
220
0
230
1
0
CIRCLE
5
124
100
AcDbEntity
8
0
100
AcDbCircle
10
97.500001452863216
20
386.00000587105751
30
0
40
0.50000000000000111
210
0
220
0
230
1
0
LWPOLYLINE
5
125
100
AcDbEntity
8
0
100
AcDbPolyline
90
69
70
1
43
0.0
10
0
20
101.00000000000001
10
0
20
93.625
10
2
20
93.625
10
2
20
84.375
10
0
20
84.375
10
0
20
75.125
10
2
20
75.125
10
2
20
65.875
10
0
20
65.875
10
0
20
56.625000000000007
10
2
20
56.625000000000007
10
2
20
47.375
10
0
20
47.375
10
0
20
38.125
10
2
20
38.125
10
2
20
28.875
10
0
20
28.875
10
0
20
19.625
10
2
20
19.625
10
2
20
10.375
10
0
20
10.375
10
0
20
3.0000000000000004
10
13.125
20
3.0000000000000004
10
13.125
20
5
10
22.375000000000004
20
5
10
22.375000000000004
20
3.0000000000000004
10
31.625
20
3.0000000000000004
10
31.625
20
5
10
40.875
20
5
10
40.875
20
3.0000000000000004
10
50.125
20
3.0000000000000004
10
50.125
20
5
10
59.375
20
5
10
59.375
20
3.0000000000000004
10
68.625
20
3.0000000000000004
10
68.625
20
5
10
77.875
20
5
10
77.875
20
3.0000000000000004
10
87.125
20
3.0000000000000004
10
87.125
20
5
10
96.375000000000014
20
5
10
96.375000000000014
20
3.0000000000000004
10
105.625
20
3.0000000000000004
10
105.625
20
5
10
114.875
20
5
10
114.875
20
3.0000000000000004
10
124.12500000000001
20
3.0000000000000004
10
128
20
3.0000000000000004
10
128
20
10.375
10
126.00000000000001
20
10.375
10
126.00000000000001
20
19.625
10
128
20
19.625
10
128
20
28.875
10
126.00000000000001
20
28.875
10
126.00000000000001
20
38.125
10
128
20
38.125
10
128
20
47.375
10
126.00000000000001
20
47.375
10
126.00000000000001
20
56.625000000000007
10
128
20
56.625000000000007
10
128
20
65.875
10
126.00000000000001
20
65.875
10
126.00000000000001
20
75.125
10
128
20
75.125
10
128
20
84.375
10
126.00000000000001
20
84.375
10
126.00000000000001
20
93.625
10
128
20
93.625
10
128
20
101.00000000000001
0
LWPOLYLINE
5
126
100
AcDbEntity
8
0
100
AcDbPolyline
90
60
70
1
43
0.0
10
133
20
101.00000000000001
10
133
20
93.625
10
131
20
93.625
10
131
20
84.375
10
133
20
84.375
10
133
20
75.125
10
131
20
75.125
10
131
20
65.875
10
133
20
65.875
10
133
20
56.625000000000007
10
131
20
56.625000000000007
10
131
20
47.375
10
133
20
47.375
10
133
20
38.125
10
131
20
38.125
10
131
20
28.875
10
133
20
28.875
10
133
20
19.625
10
131
20
19.625
10
131
20
10.375
10
133
20
10.375
10
133
20
3.0000000000000004
10
138.625
20
3.0000000000000004
10
138.625
20
5
10
147.875
20
5
10
147.875
20
3.0000000000000004
10
157.125
20
3.0000000000000004
10
157.125
20
5
10
166.375
20
5
10
166.375
20
3.0000000000000004
10
175.625
20
3.0000000000000004
10
175.625
20
5
10
184.875
20
5
10
184.875
20
3.0000000000000004
10
194.125
20
3.0000000000000004
10
194.125
20
5
10
203.37500000000003
20
5
10
203.37500000000003
20
3.0000000000000004
10
209.00000000000003
20
3.0000000000000004
10
209.00000000000003
20
10.375
10
211
20
10.375
10
211
20
19.625
10
209.00000000000003
20
19.625
10
209.00000000000003
20
28.875
10
211
20
28.875
10
211
20
38.125
10
209.00000000000003
20
38.125
10
209.00000000000003
20
47.375
10
211
20
47.375
10
211
20
56.625000000000007
10
209.00000000000003
20
56.625000000000007
10
209.00000000000003
20
65.875
10
211
20
65.875
10
211
20
75.125
10
209.00000000000003
20
75.125
10
209.00000000000003
20
84.375
10
211
20
84.375
10
211
20
93.625
10
209.00000000000003
20
93.625
10
209.00000000000003
20
101.00000000000001
0
LWPOLYLINE
5
127
100
AcDbEntity
8
0
100
AcDbPolyline
90
69
70
1
43
0.0
10
0
20
202.00000000000003
10
0
20
194.62500000000003
10
2
20
194.62500000000003
10
2
20
185.375
10
0
20
185.375
10
0
20
176.125
10
2
20
176.125
10
2
20
166.875
10
0
20
166.875
10
0
20
157.625
10
2
20
157.625
10
2
20
148.375
10
0
20
148.375
10
0
20
139.125
10
2
20
139.125
10
2
20
129.875
10
0
20
129.875
10
0
20
120.625
10
2
20
120.625
10
2
20
111.37500000000001
10
0
20
111.37500000000001
10
0
20
104
10
13.125
20
104
10
13.125
20
106.00000000000001
10
22.375000000000004
20
106.00000000000001
10
22.375000000000004
20
104
10
31.625
20
104
10
31.625
20
106.00000000000001
10
40.875
20
106.00000000000001
10
40.875
20
104
10
50.125
20
104
10
50.125
20
106.00000000000001
10
59.375
20
106.00000000000001
10
59.375
20
104
10
68.625
20
104
10
68.625
20
106.00000000000001
10
77.875
20
106.00000000000001
10
77.875
20
104
10
87.125
20
104
10
87.125
20
106.00000000000001
10
96.375000000000014
20
106.00000000000001
10
96.375000000000014
20
104
10
105.625
20
104
10
105.625
20
106.00000000000001
10
114.875
20
106.00000000000001
10
114.875
20
104
10
124.12500000000001
20
104
10
128
20
104
10
128
20
111.37500000000001
10
126.00000000000001
20
111.37500000000001
10
126.00000000000001
20
120.625
10
128
20
120.625
10
128
20
129.875
10
126.00000000000001
20
129.875
10
126.00000000000001
20
139.125
10
128
20
139.125
10
128
20
148.375
10
126.00000000000001
20
148.375
10
126.00000000000001
20
157.625
10
128
20
157.625
10
128
20
166.875
10
126.00000000000001
20
166.875
10
126.00000000000001
20
176.125
10
128
20
176.125
10
128
20
185.375
10
126.00000000000001
20
185.375
10
126.00000000000001
20
194.62500000000003
10
128
20
194.62500000000003
10
128
20
202.00000000000003
0
LWPOLYLINE
5
128
100
AcDbEntity
8
0
100
AcDbPolyline
90
60
70
1
43
0.0
10
133
20
202.00000000000003
10
133
20
194.62500000000003
10
131
20
194.62500000000003
10
131
20
185.375
10
133
20
185.375
10
133
20
176.125
10
131
20
176.125
10
131
20
166.875
10
133
20
166.875
10
133
20
157.625
10
131
20
157.625
10
131
20
148.375
10
133
20
148.375
10
133
20
139.125
10
131
20
139.125
10
131
20
129.875
10
133
20
129.875
10
133
20
120.625
10
131
20
120.625
10
131
20
111.37500000000001
10
133
20
111.37500000000001
10
133
20
104
10
138.625
20
104
10
138.625
20
106.00000000000001
10
147.875
20
106.00000000000001
10
147.875
20
104
10
157.125
20
104
10
157.125
20
106.00000000000001
10
166.375
20
106.00000000000001
10
166.375
20
104
10
175.625
20
104
10
175.625
20
106.00000000000001
10
184.875
20
106.00000000000001
10
184.875
20
104
10
194.125
20
104
10
194.125
20
106.00000000000001
10
203.37500000000003
20
106.00000000000001
10
203.37500000000003
20
104
10
209.00000000000003
20
104
10
209.00000000000003
20
111.37500000000001
10
211
20
111.37500000000001
10
211
20
120.625
10
209.00000000000003
20
120.625
10
209.00000000000003
20
129.875
10
211
20
129.875
10
211
20
139.125
10
209.00000000000003
20
139.125
10
209.00000000000003
20
148.375
10
211
20
148.375
10
211
20
157.625
10
209.00000000000003
20
157.625
10
209.00000000000003
20
166.875
10
211
20
166.875
10
211
20
176.125
10
209.00000000000003
20
176.125
10
209.00000000000003
20
185.375
10
211
20
185.375
10
211
20
194.62500000000003
10
209.00000000000003
20
194.62500000000003
10
209.00000000000003
20
202.00000000000003
0
LWPOLYLINE
5
129
100
AcDbEntity
8
0
100
AcDbPolyline
90
86
70
1
43
0.0
10
216
20
81
10
216
20
75.375
10
214.00000000000003
20
75.375
10
214.00000000000003
20
66.125
10
216
20
66.125
10
216
20
56.875
10
214.00000000000003
20
56.875
10
214.00000000000003
20
47.625
10
216
20
47.625
10
216
20
38.375
10
214.00000000000003
20
38.375
10
214.00000000000003
20
29.125
10
216
20
29.125
10
216
20
19.875
10
214.00000000000003
20
19.875
10
214.00000000000003
20
10.625
10
216
20
10.625
10
216
20
5
10
227.12500000000003
20
5
10
227.12500000000003
20
3.0000000000000004
10
236.37500000000003
20
3.0000000000000004
10
236.37500000000003
20
5
10
245.625
20
5
10
245.625
20
3.0000000000000004
10
254.875
20
3.0000000000000004
10
254.875
20
5
10
264.125
20
5
10
264.125
20
3.0000000000000004
10
273.375
20
3.0000000000000004
10
273.375
20
5
10
282.625
20
5
10
282.625
20
3.0000000000000004
10
291.875
20
3.0000000000000004
10
291.875
20
5
10
301.125
20
5
10
301.125
20
3.0000000000000004
10
310.375
20
3.0000000000000004
10
310.375
20
5
10
319.625
20
5
10
319.625
20
3.0000000000000004
10
328.875
20
3.0000000000000004
10
328.875
20
5
10
338.125
20
5
10
340
20
5
10
340
20
10.625
10
342
20
10.625
10
342
20
19.875
10
340
20
19.875
10
340
20
29.125
10
342
20
29.125
10
342
20
38.375
10
340
20
38.375
10
340
20
47.625
10
342
20
47.625
10
342
20
56.875
10
340
20
56.875
10
340
20
66.125
10
342
20
66.125
10
342
20
75.375
10
340
20
75.375
10
340
20
81
10
328.875
20
81
10
328.875
20
83
10
319.625
20
83
10
319.625
20
81
10
310.375
20
81
10
310.375
20
83
10
301.125
20
83
10
301.125
20
81
10
291.875
20
81
10
291.875
20
83
10
282.625
20
83
10
282.625
20
81
10
273.375
20
81
10
273.375
20
83
10
264.125
20
83
10
264.125
20
81
10
254.875
20
81
10
254.875
20
83
10
245.625
20
83
10
245.625
20
81
10
236.37500000000003
20
81
10
236.37500000000003
20
83
10
227.12500000000003
20
83
10
227.12500000000003
20
81
10
217.875
20
81
0
LWPOLYLINE
5
130
100
AcDbEntity
8
0
100
AcDbPolyline
90
4
70
1
43
0.0
10
213.94732364444343
20
93.625
10
341.94732364444349
20
93.625
10
341.94732364444349
20
173.625
10
213.94732364444343
20
173.625
0
CIRCLE
5
131
100
AcDbEntity
8
0
100
AcDbCircle
10
45
20
61
30
0
40
6.0000000000000009
210
0
220
0
230
1
0
CIRCLE
5
132
100
AcDbEntity
8
0
100
AcDbCircle
10
185
20
171
30
0
40
6.0000000000000009
210
0
220
0
230
1
0
CIRCLE
5
133
100
AcDbEntity
8
0
100
AcDbCircle
10
260
20
160
30
0
40
4.4999999999999938
210
0
220
0
230
1
0
CIRCLE
5
134
100
AcDbEntity
8
0
100
AcDbCircle
10
297.7009202455373
20
160.15211491701132
30
0
40
4.4999999999999973
210
0
220
0
230
1
0
ENDSEC
0
SECTION
2
OBJECTS
0
DICTIONARY
5
C
100
AcDbDictionary
3
ACAD_GROUP
350
D
3
ACAD_MLINESTYLE
350
17
0
DICTIONARY
5
D
100
AcDbDictionary
0
DICTIONARY
5
1A
330
C
100
AcDbDictionary
0
DICTIONARY
5
17
100
AcDbDictionary
0
ENDSEC
0
EOF
